# xmcd
#
# Track frame offsets: 
#        150
#        16732
#        39440
#        54524
#        69793
#        83699
#        105453
#        116317
#        136377
#        152992
#        167934
#        188556
#        201683
#        215679
#        227964
#        244751
#        260744
#        280377
#        292158
#        303504
#        317663
#        335655
#
# Disc length: 4688 seconds
#
# Revision: 2
# Processed by: cddbd v1.5.2PL0 Copyright (c) Steve Scherf et al.
# Submitted via: ExactAudioCopy v0.99pb3
#
DISCID=49124e16
DTITLE=Various Artist - 50 Jaar Nederpop (70's)
DYEAR=2008
DGENRE=Nederpop
TTITLE0=Herman Brood and His wild Romance - Saturday night
TTITLE1=Golden Earring - Radar love
TTITLE2=Earth and Fire - Memories
TTITLE3=Focus - Hocus pocus
TTITLE4=Greenfield and Cook - Only lies
TTITLE5=Kayak - Ruthless Queen
TTITLE6=Teach-In - Dinge-dong
TTITLE7=Lucifer - House for sale
TTITLE8=Normaal - Oerend hard
TTITLE9=Solution - Empty faces
TTITLE10=Pussycat - Mississippi
TTITLE11=Rob Hoeke - Down South '79
TTITLE12=Sandy Coast - True love that's a wonder
TTITLE13=Spooky and Sue - You talk too much
TTITLE14=Supersister - She was naked
TTITLE15=Alexander Curly - I'll never drink again
TTITLE16=Bonnie St.Claire - I won't stand between them
TTITLE17=Catapult - Let your hair hang down
TTITLE18=Dizzy Man's Band - Tickatoo
TTITLE19=Joey Dyser - 100 Years
TTITLE20=Left Side - Like a locomotion
TTITLE21=Tee Set - She likes weeds
EXTD=70's
EXTT0=
EXTT1=
EXTT2=
EXTT3=
EXTT4=
EXTT5=
EXTT6=
EXTT7=
EXTT8=
EXTT9=
EXTT10=
EXTT11=
EXTT12=
EXTT13=
EXTT14=
EXTT15=
EXTT16=
EXTT17=
EXTT18=
EXTT19=
EXTT20=
EXTT21=
PLAYORDER=
